# Blender v2.93.2 OBJ File: ''
# www.blender.org
mtllib crate.mtl
o Cube_Cube.001
v 1.000000 1.000000 -1.000000
v 1.000000 -1.000000 -1.000000
v 1.000000 1.000000 1.000000
v 1.000000 -1.000000 1.000000
v -1.000000 1.000000 -1.000000
v -1.000000 -1.000000 -1.000000
v -1.000000 1.000000 1.000000
v -1.000000 -1.000000 1.000000
vt 0.000200 0.000200
vt 0.993134 0.000200
vt 1.003134 0.993134
vt -0.003800 0.991134
vt 1.009134 0.997800
vt 0.000200 0.999800
vt 0.002200 0.008866
vt 0.989134 0.008866
vt 0.992467 0.004200
vt 1.002467 0.999134
vt 0.001533 0.999133
vt -0.002467 0.004200
vt 0.005533 0.011533
vt 0.992467 0.011533
vt 1.002467 0.994467
vt -0.000467 0.996467
vt 1.005800 1.001134
vt 0.006866 1.001134
vt 0.012866 0.004200
vt 0.999800 0.000200
vt 0.991134 0.003533
vt 1.009134 0.996467
vt -0.001800 0.994467
vt 0.012200 0.005533
vn 0.0000 1.0000 -0.0000
vn 0.0000 0.0000 1.0000
vn -1.0000 0.0000 0.0000
vn 0.0000 -1.0000 0.0000
vn 1.0000 -0.0000 0.0000
vn 0.0000 -0.0000 -1.0000
usemtl Material.001
s 1
f 1/1/1 5/2/1 7/3/1 3/4/1
f 4/5/2 3/6/2 7/7/2 8/8/2
f 8/9/3 7/10/3 5/11/3 6/12/3
f 6/13/4 2/14/4 4/15/4 8/16/4
f 2/17/5 1/18/5 3/19/5 4/20/5
f 6/21/6 5/22/6 1/23/6 2/24/6
